<?xml version="1.0" encoding="UTF-8" standalone="no"?>
<!DOCTYPE svg PUBLIC "-//W3C//DTD SVG 1.1//EN" "http://www.w3.org/Graphics/SVG/1.1/DTD/svg11.dtd">
<svg width="100%" height="100%" viewBox="0 0 3000 3000" version="1.1" xmlns="http://www.w3.org/2000/svg" xmlns:xlink="http://www.w3.org/1999/xlink" xml:space="preserve" xmlns:serif="http://www.serif.com/" style="fill-rule:evenodd;clip-rule:evenodd;stroke-linejoin:round;stroke-miterlimit:2;">
    <g transform="matrix(0.211546,0,0,1.32609,375.875,-674.187)">
        <path d="M4071.87,1268.44L4339.58,1167.9L3115.7,1167.9C2744.26,1167.9 2408.78,1203.31 2263.57,1257.85L-196.841,2181.9L1027.04,2181.9C1398.48,2181.9 1733.95,2146.49 1879.17,2091.95C2357.01,1912.49 4071.87,1268.44 4071.87,1268.44Z"/>
    </g>
    <path d="M2185.53,932.932L2160.74,874.554L1818.4,874.554L1247.24,2219.21L1506.15,2219.21C1584.72,2219.21 1655.69,2172.25 1686.41,2099.93C1686.41,2099.93 1989.57,1386.22 1989.57,1386.22C2085.63,1612.37 2233.47,1960.42 2292.72,2099.93C2323.44,2172.25 2394.41,2219.21 2472.99,2219.21L2731.89,2219.21L2185.53,932.932Z"/>
</svg>
