<?xml version="1.0" encoding="UTF-8" standalone="no"?>
<!DOCTYPE svg PUBLIC "-//W3C//DTD SVG 1.1//EN" "http://www.w3.org/Graphics/SVG/1.1/DTD/svg11.dtd">
<svg width="100%" height="100%" viewBox="0 0 3000 3000" version="1.1" xmlns="http://www.w3.org/2000/svg" xmlns:xlink="http://www.w3.org/1999/xlink" xml:space="preserve" xmlns:serif="http://www.serif.com/" style="fill-rule:evenodd;clip-rule:evenodd;stroke-linejoin:round;stroke-miterlimit:2;">
    <g transform="matrix(1.31947,0,0,1.31947,-604.655,-511.061)">
        <path d="M2731.89,955.732C2731.89,642.018 2477.2,387.322 2163.49,387.322L1026.66,387.322C712.952,387.322 458.256,642.018 458.256,955.732L458.256,2092.55C458.256,2406.26 712.952,2660.96 1026.66,2660.96L2163.49,2660.96C2477.2,2660.96 2731.89,2406.26 2731.89,2092.55L2731.89,955.732Z"/>
    </g>
    <g transform="matrix(0.232877,0,0,1.4598,259.192,-898.145)">
        <path d="M4033.67,1265.85L4276.86,1174.52L3087.05,1174.52C2749.63,1174.52 2444.88,1206.69 2312.97,1256.23L-134.121,2175.28L1055.69,2175.28C1393.1,2175.28 1697.85,2143.11 1829.77,2093.57C2291.33,1920.22 4033.67,1265.85 4033.67,1265.85Z" style="fill:white;"/>
    </g>
    <g transform="matrix(1.10083,0,0,1.10083,-154.584,-155.977)">
        <path d="M2177.45,936.365L2154.93,883.333L1824.21,883.333L1260.51,2210.43L1512.21,2210.43C1583.59,2210.43 1648.06,2167.77 1675.96,2102.07L1989.57,1363.76L2303.17,2102.07C2331.08,2167.77 2395.55,2210.43 2466.93,2210.43L2718.63,2210.43L2177.45,936.365Z" style="fill:white;"/>
    </g>
</svg>
